<?xml version="1.0" encoding="utf-8"?>
<!-- Generator: Adobe Illustrator 19.0.0, SVG Export Plug-In . SVG Version: 6.00 Build 0)  -->
<svg version="1.1" id="Layer_1" xmlns="http://www.w3.org/2000/svg" xmlns:xlink="http://www.w3.org/1999/xlink" x="0px" y="0px"
	 viewBox="0 0 45 45" style="enable-background:new 0 0 45 45;" xml:space="preserve" width="40px" height="40px">
<style type="text/css">
	.st0{fill:#35495E;}
	.st1{fill:#4FBA6F;}
</style>
<g id="XMLID_55_">
	<g id="XMLID_59_">
		<path id="XMLID_60_" class="st0" d="M41.8,19.4c0-10.6-8.6-19.3-19.3-19.3S3.2,8.7,3.2,19.4c0,9.3,6.6,17.1,15.4,18.9l3.8,6.7
			l3.8-6.7C35.2,36.5,41.8,28.7,41.8,19.4z"/>
	</g>
	<path id="XMLID_56_" class="st1" d="M26.6,28.1c-4.4,0-8.7,0-13.1,0c0-0.3,0-0.6,0-0.8c0.2-0.4,0.5-0.6,0.9-0.5c0.1,0,0.3,0,0.5,0
		c0-0.1,0-0.2,0-0.2c0-3.4,0-6.8,0-10.2c0-1.3,0-2.7,0-4c0-1.3,0.9-2.1,2.1-2.1c2,0,4.1,0,6.1,0c0.2,0,0.4,0,0.5,0.1
		c1,0.2,1.6,1.1,1.6,2.1c0,2.2,0,4.4,0,6.6c0,0.1,0,0.1,0,0.2c0.4,0,0.7,0,1.1,0.1c0.7,0.1,1.2,0.5,1.5,1.2c0.1,0.3,0.2,0.6,0.2,1
		c0.1,0.8,0.1,1.7,0.2,2.5c0,0.4,0.1,0.8,0.3,1.1c0.3,0.5,0.9,0.5,1.2,0c0.1-0.1,0.1-0.2,0.2-0.3c0.2-0.6,0.3-1.2,0.3-1.8
		c0-1.1,0-2.1,0-3.2c0-0.1-0.1-0.2-0.1-0.3c-0.4-0.4-0.8-0.8-1.2-1.1c-0.5-0.5-0.8-1.1-0.8-1.8c0-0.5,0-1.1,0-1.6
		c0-0.1,0-0.2-0.1-0.3c-0.6-0.6-1.1-1.1-1.7-1.7c-0.1-0.1-0.1-0.1-0.2-0.2c-0.2-0.2-0.1-0.6,0.1-0.8c0.3-0.3,0.7-0.3,1.1,0
		c1,1.1,2.1,2.1,3.1,3.2c0.5,0.5,1,1.1,1.2,1.9c0,2,0,3.9,0,5.9c0,0.4-0.1,0.8-0.1,1.2c-0.1,0.7-0.2,1.3-0.6,1.9
		c-0.7,1.2-2.4,1.3-3.3,0.2c-0.4-0.5-0.6-1.2-0.7-1.9c-0.1-0.8-0.1-1.6-0.2-2.4c0-0.3-0.1-0.5-0.1-0.8c0-0.2-0.1-0.3-0.3-0.3
		c-0.3,0-0.6-0.1-1-0.1c0,2.1,0,4.2,0,6.2c0.2,0,0.5,0,0.7,0c0.4,0,0.7,0.3,0.7,0.7C26.6,27.6,26.6,27.9,26.6,28.1z M20.1,17
		c1,0,2,0,3,0c0.6,0,0.8-0.3,0.8-0.8c0-1.3,0-2.6,0-3.9c0-0.5-0.3-0.8-0.8-0.8c-2,0-4,0-6,0c-0.5,0-0.8,0.3-0.8,0.8
		c0,1.3,0,2.6,0,3.9c0,0.6,0.4,0.8,0.8,0.8C18.1,17,19.1,17,20.1,17z"/>
</g>
</svg>
