<?xml version="1.0" encoding="utf-8"?>
<!-- Generator: Adobe Illustrator 19.0.0, SVG Export Plug-In . SVG Version: 6.00 Build 0)  -->
<svg version="1.1" id="Layer_1" xmlns="http://www.w3.org/2000/svg" xmlns:xlink="http://www.w3.org/1999/xlink" x="0px" y="0px"
	 viewBox="0 0 45 45" style="enable-background:new 0 0 45 45;" xml:space="preserve" width="40px" height="40px">
<style type="text/css">
	.st0{fill:#35495E;}
	.st1{fill:#4FBA6F;}
</style>
<g id="XMLID_66_">
	<path id="XMLID_76_" class="st0" d="M41.8,19.4c0-10.6-8.6-19.3-19.3-19.3S3.2,8.7,3.2,19.4c0,9.3,6.6,17.1,15.4,18.9l3.8,6.7
		l3.8-6.7C35.2,36.5,41.8,28.7,41.8,19.4z"/>
	<path id="XMLID_72_" class="st1" d="M13.7,19.3c0-0.3,0-0.6,0-0.9c0.1-0.3,0.1-0.5,0.2-0.8c0.5-1.5,1.6-2.6,2.9-3.3
		c2.9-1.6,5.9-1.8,9.1-1c1.7,0.5,3.2,1.3,4.4,2.7c0.6,0.7,0.9,1.5,1.1,2.4c0,0.3,0,0.6,0,0.9c0,0.2-0.1,0.4-0.1,0.6
		c-0.3,1.2-0.9,2-1.8,2.8c-0.4,0.3-0.3,1.1,0,1.4c0.1,0.1,0.2,0.3,0.2,0.5c0,0.3,0,0.5,0,0.8c0,0.6-0.2,0.9-0.9,0.9
		c-1.5,0.2-3,0.5-4.5,0.7c-0.8,0.1-1.6,0.2-2.4,0.2c-1.9-0.2-3.8-0.5-5.8-0.8c-0.3,0-0.6-0.2-0.7-0.5c-0.1-0.5,0-0.9,0-1.4
		c0-0.1,0.1-0.2,0.2-0.3c0.4-0.1,0.3-0.5,0.3-0.7c0-0.3,0-0.5-0.2-0.8c-0.4-0.3-0.7-0.7-1-1.1C14.1,20.9,13.8,20.1,13.7,19.3z
		 M28,22.8c-3.7,0-7.3,0-11,0c0,0.4,0,0.7,0,1.1c3.7,0,7.3,0,11,0C28,23.5,28,23.2,28,22.8z M19.9,17.3c0.4,0.4,0.7,0.7,1.1,1
		c0.2,0.2,0.2,0.4,0.2,0.6c-0.1,0.4-0.1,0.8-0.2,1.3c0.5-0.2,0.8-0.5,1.3-0.6c0.2-0.1,0.4-0.1,0.6,0c0.4,0.2,0.8,0.4,1.3,0.6
		c-0.1-0.5-0.2-1-0.2-1.4c0-0.2,0-0.4,0.1-0.5c0.3-0.4,0.6-0.7,1-1c-0.5-0.1-1-0.1-1.4-0.2c-0.2,0-0.3-0.2-0.4-0.3
		c-0.2-0.4-0.4-0.8-0.7-1.3c-0.2,0.5-0.4,0.9-0.7,1.3c-0.1,0.1-0.2,0.2-0.4,0.3C21,17.2,20.5,17.2,19.9,17.3z"/>
</g>
</svg>
