<?xml version="1.0" encoding="utf-8"?>
<!-- Generator: Adobe Illustrator 19.0.0, SVG Export Plug-In . SVG Version: 6.00 Build 0)  -->
<svg version="1.1" id="Layer_1" xmlns="http://www.w3.org/2000/svg" xmlns:xlink="http://www.w3.org/1999/xlink" x="0px" y="0px"
	 viewBox="0 0 45 45" style="enable-background:new 0 0 45 45;" xml:space="preserve" width="40px" height="40px">
<style type="text/css">
	.st0{fill:#35495E;}
	.st1{fill:#4FBA6F;}
</style>
<g id="XMLID_80_">
	<path id="XMLID_92_" class="st0" d="M41.8,19.4c0-10.6-8.6-19.3-19.3-19.3S3.2,8.7,3.2,19.4c0,9.3,6.6,17.1,15.4,18.9l3.8,6.7
		l3.8-6.7C35.2,36.5,41.8,28.7,41.8,19.4z"/>
	<path id="XMLID_91_" class="st1" d="M26.3,8c0.3,0.1,0.4,0.2,0.4,0.5c0,0.5,0,0.9,0,1.4c0,0.3-0.2,0.4-0.4,0.5
		c-0.2,0-0.5,0-0.7-0.1c-0.1,0-0.2-0.1-0.3-0.1c-0.8,0-1.5,0-2.3,0c0,0,0,0,0,0c0,1.7,0,3.5,0,5.2c0.2,0,0.5,0,0.7,0
		c0.4,0,0.8,0,1.2,0.1c0.2,0,0.3,0.1,0.3,0.4c0,0.2-0.1,0.4-0.3,0.5c0,0-0.1,0.1-0.1,0.1c0,0.5,0,0.9,0,1.4c0,3.4,0,6.7,0,10.1
		c0,0,0,0,0,0.1c0.1,0,0.3,0,0.4-0.1c0.5-0.3,0.9-0.7,0.9-1.3c0-0.6,0.1-1.3,0.1-1.9c0-0.7,0-1.3,0.1-2c0-1.1,0.7-1.8,1.7-2
		c0.9-0.2,1.8,0.3,2.2,1c0.1,0.1,0.2,0.3,0.2,0.4c0,0,0,0.1,0,0.1c0,0.6,0,1.2,0,1.8c0,0.2,0,0.4,0,0.6c0,0,0,0.1,0.1,0.1
		c0.1,0.1,0.1,0.2,0.1,0.3c0,0.2,0,0.4,0,0.6c0.1,0,0.1,0,0.1,0c0.2,0,0.4,0,0.5,0c0.2,0,0.2,0,0.2,0.2c0,0.3,0,0.6,0,0.9
		c0,0.1,0,0.2-0.1,0.2c-0.4,0-0.7,0-1.1,0c-0.5,0-1.1,0-1.6,0c-0.1,0-0.1,0-0.2,0c-0.2,0-0.2,0-0.2-0.2c0-0.3,0-0.6,0-0.8
		c0-0.2,0-0.2,0.2-0.2c0.2,0,0.5,0,0.7,0c0-0.2,0-0.4,0-0.5c0-0.2,0-0.3,0.1-0.4c0,0,0.1-0.1,0.1-0.2c0-0.7,0-1.4,0-2.1
		c0-0.5-0.5-0.9-1-0.9c-0.2,0-0.3,0-0.5,0c-0.3,0-0.5,0.2-0.6,0.4c-0.1,0.1-0.1,0.3-0.2,0.4c0,0,0,0.1,0,0.1c0,0.8,0,1.7,0,2.5
		c0,0.5,0,1.1-0.1,1.6c-0.1,0.8-0.5,1.5-1.3,1.9c-0.1,0-0.2,0.1-0.2,0.1c0,0-0.1,0-0.1,0.1c0,0,0,0,0,0c0.4,0.3,0.7,0.6,1.2,0.6
		c0.1,0,0.2,0.1,0.3,0.1c0.1,0.1,0.2,0.2,0.2,0.4c0,0.2-0.1,0.3-0.3,0.4c0,0,0,0-0.1,0c-0.1,0-0.3,0-0.4,0c0,0,0,0-0.1,0
		c-0.4,0.1-0.6-0.1-0.9-0.3c-0.1-0.1-0.2-0.1-0.3-0.2c-0.1-0.1-0.2-0.1-0.3-0.2c0,0.2,0,0.4-0.2,0.6c0,0-0.1,0.1-0.1,0.1
		c-1.4,0-2.7,0-4.1,0c0,0-0.1,0-0.1,0c-0.1-0.1-0.2-0.2-0.2-0.4c0-0.1,0-0.1,0-0.2c0,0-0.1,0-0.1,0.1c-0.3,0.2-0.5,0.3-0.8,0.5
		c-0.1,0.1-0.2,0.1-0.3,0.2c-0.3,0-0.6,0-0.8,0c-0.1,0-0.2-0.1-0.3-0.2c0-0.1-0.1-0.1-0.1-0.2c0-0.1,0-0.1,0-0.2
		c0.1-0.2,0.3-0.4,0.5-0.4c0.3,0,0.5-0.1,0.7-0.3c0.3-0.2,0.7-0.4,1-0.7c0,0,0.1-0.1,0.1-0.1c0-4,0-8,0-12c0-0.1,0-0.2-0.1-0.3
		c-0.3-0.2-0.3-0.6,0-0.7c0.1-0.1,0.2-0.1,0.4-0.1c0.5,0,1,0,1.5-0.1c0.1,0,0.1,0,0.1-0.2c0-1.6,0-3.3,0-4.9c0,0,0-0.1,0-0.1
		c0,0,0,0-0.1,0c-0.7,0-1.5,0-2.2,0c-0.1,0-0.2,0-0.3,0.1c-0.4,0.1-0.7,0.1-1-0.1c-0.1,0-0.1-0.1-0.1-0.2c0-0.4,0-0.8,0-1.2
		c0-0.2,0-0.4,0-0.5c0-0.1,0.1-0.2,0.2-0.3c0.1,0,0.1,0,0.2,0c0.1,0,0.3,0,0.4,0c0.1,0,0.3,0.1,0.4,0.1c0.2,0,0.4,0,0.7,0
		c1.5,0,3,0,4.5,0c0.4,0,0.8-0.1,1.2-0.2C26,8,26.2,8,26.3,8z"/>
</g>
</svg>
