<?xml version="1.0" encoding="utf-8"?>
<!-- Generator: Adobe Illustrator 19.0.0, SVG Export Plug-In . SVG Version: 6.00 Build 0)  -->
<svg version="1.1" id="Layer_1" xmlns="http://www.w3.org/2000/svg" xmlns:xlink="http://www.w3.org/1999/xlink" x="0px" y="0px"
	 viewBox="0 0 45 45" style="enable-background:new 0 0 45 45;" xml:space="preserve" width="40px" height="40px">
<style type="text/css">
	.st0{fill:#F26767;}
	.st1{fill:#FFFFFF;}
</style>
<g id="XMLID_22_">
	<path id="XMLID_37_" class="st0" d="M41.8,19.4c0-10.6-8.6-19.3-19.3-19.3S3.2,8.7,3.2,19.4c0,9.3,6.6,17.1,15.4,18.9l3.8,6.7
		l3.8-6.7C35.2,36.5,41.8,28.7,41.8,19.4z"/>
</g>
<g id="XMLID_21_">
	<path id="XMLID_19_" class="st1" d="M22.5,25.5L22.5,25.5c-1.5,0-2.7-1.2-2.7-2.7V6.5c0-1.5,1.2-2.7,2.7-2.7h0
		c1.5,0,2.7,1.2,2.7,2.7v16.2C25.2,24.3,24,25.5,22.5,25.5z"/>
	<circle id="XMLID_20_" class="st1" cx="22.5" cy="29.8" r="2.8"/>
</g>
</svg>
