<?xml version="1.0" encoding="utf-8"?>
<!-- Generator: Adobe Illustrator 19.0.0, SVG Export Plug-In . SVG Version: 6.00 Build 0)  -->
<svg version="1.1" id="Layer_1" xmlns="http://www.w3.org/2000/svg" xmlns:xlink="http://www.w3.org/1999/xlink" x="0px" y="0px"
	 viewBox="0 0 45 45" style="enable-background:new 0 0 45 45;" xml:space="preserve">
<style type="text/css">
	.st0{fill:#35495E;}
	.st1{fill:#4FBA6F;}
</style>
<g id="XMLID_61_">
	<path id="XMLID_65_" class="st0" d="M41.8,19.4c0-10.6-8.6-19.3-19.3-19.3S3.2,8.7,3.2,19.4c0,9.3,6.6,17.1,15.4,18.9l3.8,6.7
		l3.8-6.7C35.2,36.5,41.8,28.7,41.8,19.4z"/>
	<path id="XMLID_62_" class="st1" d="M26.9,21.4c-0.6-0.1-1.2-0.2-1.8-0.3c-0.2,0-0.3-0.1-0.5-0.1c-0.4,0-0.8,0.1-1.1,0.5
		c-1.8,2.2-3.7,4.3-5.5,6.5c-1.3,1.6-3.9,1.1-4.8-0.8c-0.5-1.2-0.3-2.5,0.8-3.4c2.1-1.7,4.2-3.6,6.4-5.3c0.5-0.4,0.5-1,0.4-1.5
		c-0.1-0.5-0.2-0.9-0.2-1.4c-0.1-1.3,0.2-2.4,1-3.4c1.2-1.4,2.7-2.2,4.5-2.3c0.3,0,0.6,0.1,0.8,0.4c0.1,0.3,0.1,0.6-0.2,0.9
		c-0.8,0.8-1.6,1.6-2.4,2.4c-0.1,0.1-0.1,0.2-0.1,0.4c0.3,0.9,0.6,1.8,0.9,2.7c0,0.1,0.1,0.2,0.2,0.2c0.9,0.3,1.8,0.6,2.7,0.9
		c0.1,0,0.2,0,0.3-0.1c0.8-0.8,1.6-1.6,2.4-2.4c0.3-0.3,0.6-0.4,0.9-0.2c0.3,0.1,0.5,0.4,0.4,0.8c-0.2,2.4-1.3,4.2-3.5,5.2
		c-0.2,0.1-0.5,0.2-0.7,0.2C27.5,21.3,27.2,21.4,26.9,21.4z M15.9,27.4c0.8,0,1.5-0.7,1.5-1.5c0-0.8-0.7-1.5-1.5-1.5
		c-0.8,0-1.5,0.7-1.5,1.5C14.4,26.8,15.1,27.4,15.9,27.4z"/>
</g>
</svg>
